# xmcd
#
# Track frame offsets:
#	150
#	15999
#	33880
#	48480
#	62365
#	79989
#	94892
#	111185
#	124275
#	139154
#	154096
#	169278
#	184506
#	199014
#	212308
#	224752
#	236104
#	251556
#	265817
#	278986
#	298897
#
# Disc length: 4192 seconds
#
# Revision: 0
# Processed by: cddbd v1.5.2PL0 Copyright (c) Steve Scherf et al.
# Submitted via: dBpowerAMP V4.0
#
DISCID=39105e15
DTITLE=João Neto and Frederico - Vale a pena sonhar
DYEAR=2009
DGENRE=country
TTITLE0=Pense em mim
TTITLE1=Revelação
TTITLE2=Não vou mais chorar
TTITLE3=Tô sofrendo por paixão
TTITLE4=História de novela
TTITLE5=Tem que ser agora
TTITLE6=Marmiteiro
TTITLE7=Sai pra lá
TTITLE8=Mata minha sede
TTITLE9=Ligação fora de área
TTITLE10=Chama eu
TTITLE11=A sua vista
TTITLE12=Manta doida
TTITLE13=Destino
TTITLE14=Os astros me revelam
TTITLE15=Ingrata
TTITLE16=Quero amor pra vida inteira
TTITLE17=Bitoca nas meninas
TTITLE18=Pega a senha
TTITLE19=Vale a pena sonhar
TTITLE20=Delegada
EXTD=
EXTT0=
EXTT1=
EXTT2=
EXTT3=
EXTT4=
EXTT5=
EXTT6=
EXTT7=
EXTT8=
EXTT9=
EXTT10=
EXTT11=
EXTT12=
EXTT13=
EXTT14=
EXTT15=
EXTT16=
EXTT17=
EXTT18=
EXTT19=
EXTT20=
PLAYORDER=
